<?xml version="1.0" encoding="UTF-8" standalone="no"?>
<!-- Created with Inkscape (http://www.inkscape.org/) -->

<svg
   width="210mm"
   height="297mm"
   viewBox="0 0 210 297"
   version="1.1"
   id="svg1129"
   inkscape:export-filename="Logo.png"
   inkscape:export-xdpi="96"
   inkscape:export-ydpi="96"
   inkscape:version="1.2.1 (9c6d41e410, 2022-07-14)"
   sodipodi:docname="letters.svg"
   xmlns:inkscape="http://www.inkscape.org/namespaces/inkscape"
   xmlns:sodipodi="http://sodipodi.sourceforge.net/DTD/sodipodi-0.dtd"
   xmlns="http://www.w3.org/2000/svg"
   xmlns:svg="http://www.w3.org/2000/svg">
  <sodipodi:namedview
     id="namedview1131"
     pagecolor="#505050"
     bordercolor="#eeeeee"
     borderopacity="1"
     inkscape:showpageshadow="0"
     inkscape:pageopacity="0"
     inkscape:pagecheckerboard="0"
     inkscape:deskcolor="#505050"
     inkscape:document-units="mm"
     showgrid="true"
     inkscape:zoom="2.587745"
     inkscape:cx="381.02673"
     inkscape:cy="183.17107"
     inkscape:window-width="2560"
     inkscape:window-height="1369"
     inkscape:window-x="-8"
     inkscape:window-y="-8"
     inkscape:window-maximized="1"
     inkscape:current-layer="layer2">
    <inkscape:grid
       type="xygrid"
       id="grid1250" />
  </sodipodi:namedview>
  <defs
     id="defs1126" />
  <g
     inkscape:label="Layer 1"
     inkscape:groupmode="layer"
     id="layer1"
     style="display:none">
    <g
       inkscape:label="Layer 1 copy"
       inkscape:groupmode="layer"
       id="g1949"
       transform="translate(-107.15623,-124.35419)"
       style="display:inline">
      <rect
         style="fill:#000000;stroke-width:0.229135"
         id="rect1879"
         width="3.9687428"
         height="15.875"
         x="124.35415"
         y="128.32294" />
      <rect
         style="fill:#000000;stroke-width:0.264583"
         id="rect1887"
         width="3.96875"
         height="15.875"
         x="142.87498"
         y="128.32295" />
      <rect
         style="fill:#000000;stroke-width:0.264583"
         id="rect1889"
         width="9.9218674"
         height="3.9687495"
         x="144.85934"
         y="128.32295" />
      <rect
         style="fill:#000000;stroke-width:0.264583"
         id="rect1891"
         width="9.9218674"
         height="3.9687495"
         x="144.85934"
         y="140.2292" />
      <rect
         style="fill:#000000;stroke-width:0.264583"
         id="rect1907"
         width="6.6145754"
         height="2.6458304"
         x="144.85934"
         y="134.93752" />
      <rect
         style="fill:#ffffff;fill-opacity:1;stroke-width:0.264583"
         id="rect1909"
         width="3.96875"
         height="15.875"
         x="124.35415"
         y="149.48961" />
      <rect
         style="fill:#ffffff;fill-opacity:1;stroke-width:0.241528"
         id="rect1911"
         width="9.9218597"
         height="3.9687521"
         x="126.33852"
         y="149.48961" />
      <rect
         style="fill:#ffffff;fill-opacity:1;stroke-width:0.264583"
         id="rect1913"
         width="3.96875"
         height="15.875"
         x="137.5833"
         y="149.48961" />
      <rect
         style="fill:#ffffff;fill-opacity:1;stroke-width:0.264583"
         id="rect1915"
         width="9.9218693"
         height="3.96875"
         x="139.56767"
         y="149.48961" />
      <rect
         style="fill:#ffffff;fill-opacity:1;stroke-width:0.264583"
         id="rect1917"
         width="6.614584"
         height="2.6458333"
         x="139.56767"
         y="156.10419" />
      <rect
         style="fill:#ffffff;fill-opacity:1;stroke-width:0.264583"
         id="rect1919"
         width="9.9218693"
         height="3.96875"
         x="139.56767"
         y="161.39586" />
      <rect
         style="fill:#000000;fill-opacity:1;stroke-width:0.264583"
         id="rect1921"
         width="3.96875"
         height="15.875"
         x="137.58331"
         y="170.65627" />
      <rect
         style="fill:#000000;fill-opacity:1;stroke-width:0.24153"
         id="rect1923"
         width="8.5989618"
         height="3.9687521"
         x="139.56767"
         y="170.65627" />
      <rect
         style="fill:#000000;fill-opacity:1;stroke-width:0.264583"
         id="rect1925"
         width="3.9687476"
         height="15.875"
         x="189.17709"
         y="170.65625" />
      <rect
         style="fill:#000000;fill-opacity:1;stroke-width:0.24153"
         id="rect1927"
         width="9.9218483"
         height="3.9687521"
         x="191.16147"
         y="170.65625" />
      <rect
         style="fill:#000000;fill-opacity:1;stroke-width:0.264583"
         id="rect1929"
         width="3.96875"
         height="15.875"
         x="149.48956"
         y="170.65627" />
      <rect
         style="fill:#000000;fill-opacity:1;stroke-width:0.264583"
         id="rect1931"
         width="9.7205038"
         height="3.96875"
         x="151.67529"
         y="170.65627" />
      <rect
         style="fill:#000000;fill-opacity:1;stroke-width:0.264583"
         id="rect1933"
         width="6.4803405"
         height="2.6458333"
         x="151.67529"
         y="177.27084" />
      <rect
         style="fill:#000000;fill-opacity:1;stroke-width:0.264583"
         id="rect1935"
         width="9.7205038"
         height="3.96875"
         x="151.67529"
         y="182.56252" />
      <rect
         style="display:inline;fill:#000000;fill-opacity:1;stroke-width:0.264583"
         id="rect1929-7"
         width="3.96875"
         height="15.875"
         x="175.94792"
         y="170.65625" />
      <rect
         style="display:inline;fill:#000000;fill-opacity:1;stroke-width:0.264583"
         id="rect1931-5"
         width="9.9218693"
         height="3.96875"
         x="177.9323"
         y="170.65625" />
      <rect
         style="display:inline;fill:#000000;fill-opacity:1;stroke-width:0.264583"
         id="rect1933-6"
         width="6.614584"
         height="2.6458333"
         x="177.9323"
         y="177.27083" />
      <rect
         style="display:inline;fill:#000000;fill-opacity:1;stroke-width:0.264583"
         id="rect1935-2"
         width="9.9218693"
         height="3.96875"
         x="177.9323"
         y="182.5625" />
      <rect
         style="fill:#ffffff;fill-opacity:1;stroke-width:0.264583"
         id="rect1937"
         width="11.906253"
         height="3.9687521"
         x="150.8125"
         y="149.48961" />
      <rect
         style="fill:#ffffff;fill-opacity:1;stroke-width:0.264583"
         id="rect1939"
         width="3.96875"
         height="11.90625"
         x="154.78125"
         y="153.45836" />
      <rect
         style="fill:#000000;fill-opacity:1;stroke-width:0.264583"
         id="rect1941"
         width="3.96875"
         height="15.875"
         x="124.35415"
         y="170.65627" />
      <rect
         style="fill:#000000;fill-opacity:1;stroke-width:0.264583"
         id="rect1943"
         width="3.9687524"
         height="15.875003"
         x="132.29164"
         y="170.65627" />
      <rect
         style="fill:#000000;fill-opacity:1;stroke-width:0.229136"
         id="rect1945"
         width="5.9531274"
         height="3.9687476"
         x="127.66144"
         y="182.56252" />
      <rect
         style="fill:#000000;fill-opacity:1;stroke-width:0.264583"
         id="rect1947"
         width="5.9531274"
         height="3.96875"
         x="127.66144"
         y="170.65627" />
      <path
         style="fill:#000000;fill-opacity:1;stroke-width:0.264583"
         d="m 129.64582,128.32294 v 7.9375 l 7.9375,7.9375 h 3.96875 v -15.875 h -3.96875 v 3.96875 2.64583 2.64584 l -3.96875,-3.96875 v -5.29167 z"
         id="path3276"
         sodipodi:nodetypes="cccccccccccc" />
      <path
         style="display:inline;fill:#000000;fill-opacity:1;stroke-width:0.264583"
         d="m 162.71875,170.6563 v 7.9375 l 7.9375,7.9375 h 3.96875 v -15.875 h -3.96875 v 3.96875 2.64583 2.64584 l -3.96875,-3.96875 v -5.29167 z"
         id="path3276-1"
         sodipodi:nodetypes="cccccccccccc" />
      <path
         style="fill:#ffffff;fill-opacity:1;stroke-width:0.264583"
         d="m 111.12498,165.3646 v -15.875 h 11.90626 v 3.96875 h -7.93751 v 2.64584 l 5.29168,-10e-6 v 2.64583 l -5.29168,1e-5 v 6.61458 z"
         id="path3508"
         sodipodi:nodetypes="ccccccccccc" />
      <path
         style="display:inline;fill:#000000;fill-opacity:1;stroke-width:0.264583"
         d="m 111.12498,144.19794 v -15.875 h 11.90626 v 3.96875 h -7.93751 v 2.64584 h 5.29168 v 2.64583 h -5.29168 v 6.61458 z"
         id="path3508-9"
         sodipodi:nodetypes="ccccccccccc" />
      <path
         style="display:inline;fill:#000000;fill-opacity:1;stroke-width:0.264583"
         d="m 111.12499,186.53127 -1e-5,-15.875 h 11.90626 v 3.96875 h -7.93751 v 2.64584 h 5.29168 v 2.64583 h -5.29168 v 6.61458 z"
         id="path3508-9-0"
         sodipodi:nodetypes="ccccccccccc" />
    </g>
  </g>
  <g
     inkscape:groupmode="layer"
     id="layer2"
     inkscape:label="Letters">
    <path
       style="fill:#000000;stroke-width:0.264583"
       d="m 42.333333,29.104167 v 15.875 h 3.96875 V 38.364584 H 51.59375 V 35.71875 h -5.291667 v -2.645833 h 7.9375 v -3.96875 z"
       id="path1543" />
    <path
       style="fill:#000000;stroke-width:0.264583"
       d="m 89.958333,29.104167 v 15.875 h 3.96875 V 38.364584 H 99.21875 V 35.71875 h -5.291667 v -2.645833 h 7.937497 v -3.96875 z"
       id="path1543-0" />
    <path
       style="fill:#000000;stroke-width:0.264583"
       d="M 42.333333,47.625 V 63.5 h 3.96875 V 56.885417 H 51.59375 V 54.239583 H 46.302083 V 51.59375 h 7.9375 V 47.625 Z"
       id="path1543-0-5" />
    <path
       style="fill:#000000;stroke-width:0.264583"
       d="m 55.562499,29.104167 v 15.875 h 3.96875 v -15.875 z"
       id="path1545" />
    <path
       style="fill:#000000;stroke-width:0.264583"
       d="m 60.854166,29.104167 v 7.9375 l 7.9375,7.9375 h 3.96875 v -15.875 h -3.96875 v 9.260417 l -3.96875,-3.96875 v -5.291667 z"
       id="path1547" />
    <path
       style="fill:#000000;stroke-width:0.264583"
       d="m 100.54167,47.625 v 7.9375 l 7.9375,7.9375 h 3.96875 V 47.625 h -3.96875 v 9.260417 l -3.96875,-3.96875 V 47.625 Z"
       id="path1547-0" />
    <path
       style="fill:#000000;stroke-width:0.264583"
       d="m 74.083333,29.104167 v 15.875 h 11.906249 v -3.96875 h -7.937499 v -2.645833 h 4.762499 V 35.71875 h -4.762499 v -2.645833 h 7.937499 v -3.96875 z"
       id="path1549" />
    <path
       style="fill:#000000;stroke-width:0.264583"
       d="m 116.41667,29.104167 v 15.875 h 11.90625 v -3.96875 h -7.9375 v -2.645833 h 4.7625 V 35.71875 h -4.7625 v -2.645833 h 7.9375 v -3.96875 z"
       id="path1549-7" />
    <path
       style="fill:#000000;stroke-width:0.264583"
       d="M 85.989583,47.625 V 63.5 h 11.906249 v -3.96875 h -7.937499 v -2.645833 h 4.762499 V 54.239583 H 89.958333 V 51.59375 h 7.937499 V 47.625 Z"
       id="path1549-7-3" />
    <path
       style="fill:#000000;stroke-width:0.264583"
       d="M 115.09375,47.625 V 63.5 H 127 v -3.96875 h -7.9375 v -2.645833 h 4.7625 v -2.645834 h -4.7625 V 51.59375 H 127 V 47.625 Z"
       id="path1549-7-3-7" />
    <path
       style="fill:#000000;stroke-width:0.264583"
       d="m 103.1875,44.979167 v -15.875 h 11.90625 v 3.96875 h -7.9375 v 11.90625 z"
       id="path1551" />
    <path
       style="fill:#000000;stroke-width:0.264583"
       d="M 71.4375,63.5 V 47.625 h 11.90625 v 3.96875 h -7.9375 V 63.5 Z"
       id="path1551-7" />
    <path
       style="fill:#000000;stroke-width:0.264583"
       d="M 129.64583,63.5 V 47.625 h 11.90625 v 3.96875 h -7.9375 V 63.5 Z"
       id="path1551-7-9" />
    <path
       style="fill:#000000;stroke-width:0.264583"
       d="m 129.64583,29.104167 v 3.96875 h 3.96876 v 11.90625 h 3.96875 v -11.90625 h 3.96875 v -3.96875 z"
       id="path1558" />
    <path
       style="fill:#000000;stroke-width:0.264583"
       d="M 56.885416,47.625 V 63.5 h 11.90625 l -3.96875,-3.96875 h -3.96875 v -7.9375 h 3.96875 v 7.9375 L 68.791666,63.5 V 47.625 Z"
       id="path1562" />
  </g>
</svg>
