<?xml version="1.0" encoding="UTF-8" standalone="no"?>
<!-- Created with Inkscape (http://www.inkscape.org/) -->

<svg
   width="200mm"
   height="200mm"
   viewBox="0 0 200 200"
   version="1.1"
   id="svg5"
   inkscape:version="1.2.1 (9c6d41e410, 2022-07-14)"
   sodipodi:docname="drawing.svg"
   xmlns:inkscape="http://www.inkscape.org/namespaces/inkscape"
   xmlns:sodipodi="http://sodipodi.sourceforge.net/DTD/sodipodi-0.dtd"
   xmlns="http://www.w3.org/2000/svg"
   xmlns:svg="http://www.w3.org/2000/svg">
  <sodipodi:namedview
     id="namedview7"
     pagecolor="#505050"
     bordercolor="#ffffff"
     borderopacity="1"
     inkscape:showpageshadow="0"
     inkscape:pageopacity="0"
     inkscape:pagecheckerboard="1"
     inkscape:deskcolor="#505050"
     inkscape:document-units="mm"
     showgrid="true"
     showguides="true"
     inkscape:zoom="1.4142136"
     inkscape:cx="358.85668"
     inkscape:cy="331.63307"
     inkscape:window-width="2560"
     inkscape:window-height="1369"
     inkscape:window-x="-8"
     inkscape:window-y="-8"
     inkscape:window-maximized="1"
     inkscape:current-layer="layer2">
    <inkscape:grid
       type="xygrid"
       id="grid9"
       originx="-52.91667"
       originy="-60.854187" />
  </sodipodi:namedview>
  <defs
     id="defs2" />
  <g
     inkscape:groupmode="layer"
     id="layer6"
     inkscape:label="Layer 4"
     style="display:none">
    <path
       style="display:none;fill:#ececec;fill-opacity:1;stroke-width:0.264583"
       d="M 79.374996,164.04164 58.20833,142.87498 V 79.374978 h 42.33333 l 21.16667,21.166662 H 79.374996 Z"
       id="path3770" />
    <path
       style="fill:#ececec;fill-opacity:1;stroke-width:0.264583"
       d="m 105.83333,185.20831 h -5.29167 l -63.499996,-63.5 h -5.291667 v 2.64583 l 66.145832,66.14584 7.937501,7.9375 z"
       id="path3828"
       sodipodi:nodetypes="cccccccc" />
    <path
       style="fill:#ececec;fill-opacity:1;stroke-width:0.264583"
       d="m 100.54166,190.49998 v -68.79167 h 47.625 v 5.29167 h -42.33333 v 68.79167 z"
       id="path3830"
       sodipodi:nodetypes="ccccccc" />
    <path
       style="fill:#ececec;fill-opacity:1;stroke-width:0.264583"
       d="m 148.16666,126.99998 v -7.9375 L 113.77083,84.666644 h -5.29167 -2.64583 L 142.875,121.70831 v 5.29167 z"
       id="path3832" />
    <path
       style="fill:#ececec;fill-opacity:1;stroke-width:0.264583"
       d="m 169.33333,84.666644 h -63.5 v -5.291666 h 63.5 z"
       id="path3834" />
    <path
       style="fill:#ececec;fill-opacity:1;stroke-width:0.264583"
       d="m 164.04166,84.666644 v -5.291666 l -63.5,-63.499999 v -5.291666 h 1.32292 l 74.08333,74.083333 -6.61458,-2e-6 z"
       id="path3836"
       sodipodi:nodetypes="cccccccc" />
    <path
       style="fill:#ececec;fill-opacity:1;stroke-width:0.264583"
       d="m 31.749997,10.583313 h 70.114583 l 1.32292,5.291666 H 31.749997 Z"
       id="path3838"
       sodipodi:nodetypes="ccccc" />
    <path
       style="fill:#ececec;fill-opacity:1;stroke-width:0.264583"
       d="M 37.041664,10.583313 V 124.35414 H 31.749997 V 10.583313 Z"
       id="path3840" />
    <path
       style="fill:#ececec;fill-opacity:1;stroke-width:0.264583"
       d="M 129.64583,42.333312 H 37.041664 v -5.291667 h 87.312496 z"
       id="path3846" />
    <path
       style="fill:#ececec;fill-opacity:1;stroke-width:0.264583"
       d="m 105.83333,84.666644 h -47.625 v -5.291666 h 50.27083 z"
       id="path3848" />
    <path
       style="fill:#ececec;fill-opacity:1;stroke-width:0.264583"
       d="M 63.499997,150.81248 V 84.666644 H 58.20833 v 60.854166 z"
       id="path3850" />
    <path
       style="fill:#ececec;fill-opacity:1;stroke-width:0.264583"
       d="m 79.374997,165.36456 -10e-7,-64.82292 H 121.70833 L 107.15625,83.34373 H 63.499997 v 66.14583 z"
       id="path3852"
       sodipodi:nodetypes="ccccccc" />
    <path
       style="fill:#ececec;fill-opacity:1;stroke-width:0.264583"
       d="m 144.19791,58.208313 -107.156246,-2e-6 -1.322917,-17.197915 h 92.604163 z"
       id="path3856"
       sodipodi:nodetypes="ccccc" />
    <path
       style="display:inline;fill:#ececec;fill-opacity:1;stroke-width:0.264583"
       d="M 156.10416,126.99998 87.312497,58.208313 h -7.9375 l 68.791663,68.791667 z"
       id="path3931"
       sodipodi:nodetypes="ccccc" />
  </g>
  <g
     inkscape:label="Layer 1"
     inkscape:groupmode="layer"
     id="layer1"
     transform="translate(-52.375009,-60.312535)"
     style="display:none">
    <rect
       style="fill:#000000;stroke-width:4.23332"
       id="rect119"
       width="42.333332"
       height="21.166668"
       x="110.58332"
       y="76.187515" />
    <rect
       style="fill:#000000;stroke-width:4.23332"
       id="rect121"
       width="21.16667"
       height="42.333332"
       x="89.416672"
       y="139.6875"
       ry="0" />
    <rect
       style="fill:#000000;stroke-width:4.23423"
       id="rect123"
       width="42.349934"
       height="21.166687"
       x="89.416672"
       y="118.52084" />
    <rect
       style="fill:#ffffff;stroke-width:4.23332"
       id="rect195"
       width="42.333336"
       height="21.166666"
       x="131.75"
       y="97.354172" />
    <rect
       style="fill:#ffffff;stroke-width:4.23332"
       id="rect249"
       width="42.333332"
       height="21.166666"
       x="110.58332"
       y="139.6875" />
    <rect
       style="fill:#ffffff;stroke-width:4.23332"
       id="rect251"
       width="21.166666"
       height="42.333332"
       x="110.58332"
       y="160.85416" />
    <rect
       style="fill:#000000;stroke-width:4.23332"
       id="rect305"
       width="42.333313"
       height="21.166666"
       x="152.91667"
       y="118.52084" />
    <rect
       style="fill:#000000;stroke-width:4.23332"
       id="rect309"
       width="42.333332"
       height="21.166666"
       x="131.74998"
       y="160.85416" />
    <rect
       style="fill:#000000;stroke-width:4.23332"
       id="rect311"
       width="21.166666"
       height="42.333332"
       x="131.74998"
       y="182.02083" />
  </g>
  <g
     inkscape:groupmode="layer"
     id="layer3"
     inkscape:label="Layer 2"
     style="display:none"
     transform="translate(28.562503,7.395853)">
    <path
       style="display:inline;fill:#000000;fill-opacity:1;stroke-width:0.264583"
       d="M 29.645823,135.47912 8.4791546,114.31245 H 29.645823 Z"
       id="path2466" />
    <path
       style="display:inline;fill:#ffffff;fill-opacity:1;stroke-width:0.264583"
       d="M 50.812491,156.64578 29.645823,135.47912 h 21.166668 z"
       id="path2468" />
    <path
       style="display:inline;fill:#000000;fill-opacity:1;stroke-width:0.264583"
       d="m 71.979161,177.81245 -21.16667,-21.16666 h 21.16667 z"
       id="path2468-8" />
    <path
       style="display:inline;fill:#000000;fill-opacity:1;stroke-width:0.264583"
       d="M 71.979141,8.4791274 93.145811,29.645787 H 71.979141 Z"
       id="path2468-2" />
    <path
       style="display:inline;fill:#ffffff;fill-opacity:1;stroke-width:0.264583"
       d="M 93.145811,29.645796 114.31249,50.812453 H 93.145811 Z"
       id="path2468-2-3" />
    <path
       style="display:inline;fill:#000000;fill-opacity:1;stroke-width:0.264583"
       d="M 29.645825,29.645788 8.4791526,8.4791284 H 29.645824 Z"
       id="path2468-2-31" />
    <path
       style="display:inline;fill:#ffffff;fill-opacity:1;stroke-width:0.264583"
       d="M 50.812501,50.812453 29.645825,29.645797 h 21.166676 z"
       id="path2468-2-3-0" />
    <path
       style="display:inline;fill:#000000;fill-opacity:1;stroke-width:0.264583"
       d="m 114.31249,50.812453 21.16667,21.16666 h -21.16667 z"
       id="path2468-2-0" />
    <path
       style="display:inline;fill:#000000;fill-opacity:1;stroke-width:0.264583"
       d="m 71.979161,71.979123 -21.16667,-21.16666 h 21.16667 z"
       id="path2468-2-0-3" />
    <path
       style="display:inline;fill:#000000;fill-opacity:1;stroke-width:0.264583"
       d="m 50.812491,50.812463 21.16667,21.16666 h -21.16667 z"
       id="path2468-2-36" />
    <path
       style="display:inline;fill:#ffffff;fill-opacity:1;stroke-width:0.264583"
       d="m 71.979151,71.979133 21.16667,21.16666 h -21.16667 z"
       id="path2468-2-3-5" />
    <path
       style="display:inline;fill:#000000;fill-opacity:1;stroke-width:0.264583"
       d="M 93.145821,93.145783 114.3125,114.31244 H 93.145821 Z"
       id="path2468-2-0-0" />
    <path
       style="fill:#000000;fill-opacity:1;stroke-width:0.264583"
       d="M 8.4791606,29.645792 V 8.4791264 L 29.645827,29.645792 Z"
       id="path3381" />
    <path
       style="fill:#ffffff;fill-opacity:1;stroke-width:0.264583"
       d="M 29.645827,29.645792 V 50.812458 H 50.812493 Z"
       id="path3383" />
  </g>
  <g
     inkscape:groupmode="layer"
     id="layer4"
     inkscape:label="Layer 3"
     style="display:inline">
    <path
       style="fill:#ffffff;fill-opacity:1;stroke-width:0.264583"
       d="M 31.749997,10.583313 H 103.1875 l 66.14583,66.145833 v 5.291667 l -21.16667,21.166667 v 15.875 7.9375 h -42.33333 v 63.5 h -7.9375 L 31.749997,124.35415 Z"
       id="path3385"
       sodipodi:nodetypes="cccccccccccc" />
  </g>
  <g
     inkscape:groupmode="layer"
     id="layer5"
     inkscape:label="FFF"
     style="display:inline">
    <path
       style="display:inline;fill:#4d4d4d;fill-opacity:1;stroke-width:0.264583"
       d="M 164.04166,79.374978 142.875,58.208311 H 79.374996 v 21.166667 z"
       id="path3685" />
    <path
       style="display:inline;fill:#000000;fill-opacity:1;stroke-width:0.264583"
       d="m 37.041664,37.041645 -8e-6,-21.166664 63.499984,-10e-7 21.16667,21.166668 z"
       id="path3673" />
    <path
       style="fill:#4d4d4d;fill-opacity:1;stroke-width:0.264583"
       d="m 79.374978,100.54164 -3e-6,63.49998 21.166685,21.16668 -10e-6,-63.50001 H 142.875 l -21.16668,-21.16665 z"
       id="path3677" />
    <path
       style="display:inline;fill:#b3b3b3;fill-opacity:1;stroke-width:0.264583"
       d="M 58.208311,142.87495 V 79.374965 l 42.333349,1.5e-5 21.16666,21.16666 H 79.374978 l 1.6e-5,63.5 z"
       id="path3679" />
    <path
       style="display:inline;fill:#b3b3b3;fill-opacity:1;stroke-width:0.264583"
       d="m 58.208311,37.04165 1.9e-5,21.166661 84.66664,-5e-6 -21.16666,-21.166658 z"
       id="path3681" />
    <path
       style="display:inline;fill:#000000;fill-opacity:1;stroke-width:0.264583"
       d="M 58.20833,142.87498 37.041664,121.70831 V 58.208311 H 79.374996 L 100.54166,79.374978 H 58.20833 Z"
       id="path3683" />
  </g>
  <g
     inkscape:groupmode="layer"
     id="layer2"
     inkscape:label="Colors"
     style="display:inline">
    <path
       style="fill:#800000;stroke-width:0.264583"
       d="M 37.041664,15.874979 V 37.041645 H 121.70833 L 100.54166,15.874979 Z"
       id="path1546" />
    <path
       style="fill:#000000;stroke-width:0.264583"
       d="M 37.041664,58.208311 V 121.70831 L 58.20833,142.87498 V 79.374978 h 42.33333 L 79.374996,58.208311 Z"
       id="path1548" />
    <path
       style="fill:#000000;stroke-width:0.707107"
       d="m 140.00714,100.05561 c 0,13.31717 0,26.63435 0,39.95153 106.41819,0 212.83637,0 319.25456,0 -26.63159,-26.63436 -53.26319,-53.26871 -79.89478,-79.903065 -79.78659,0 -159.57318,0 -239.35978,0 0,13.317177 0,26.634355 0,39.951535 z"
       id="path1017"
       transform="scale(0.26458333)" />
  </g>
  <g
     inkscape:groupmode="layer"
     id="layer7"
     inkscape:label="Colors 1"
     style="display:none">
    <path
       style="fill:#000000;stroke-width:0.264583"
       d="m 59.531247,55.562478 v -15.875 h 11.906249 v 3.96875 h -7.937499 v 2.645834 h 5.291666 v 2.645833 h -5.291666 v 6.614583 z"
       id="path1658" />
    <path
       style="fill:#000000;stroke-width:0.264583"
       d="m 72.760413,39.687478 v 15.875 h 3.96875 v -15.875 z"
       id="path1660" />
    <path
       style="fill:#000000;stroke-width:0.264583"
       d="m 78.05208,39.687478 v 7.9375 l 7.9375,7.9375 h 3.96875 v -15.875 h -3.96875 v 9.260417 l -3.96875,-3.96875 v -5.291667 z"
       id="path1662" />
    <path
       style="fill:#000000;stroke-width:0.264583"
       d="m 91.281246,39.687478 v 15.875 H 103.1875 v -3.96875 h -7.937504 v -2.645833 h 5.291664 v -2.645833 h -5.291664 v -2.645834 h 7.937504 v -3.96875 z"
       id="path1664" />
    <path
       style="fill:#000000;stroke-width:0.264583"
       d="m 72.760413,76.729145 v -15.875 h 11.90625 v 3.96875 h -7.9375 v 11.90625 z"
       id="path1666" />
  </g>
  <g
     inkscape:groupmode="layer"
     id="layer8"
     inkscape:label="Colors 2"
     style="display:none">
    <path
       style="fill:#000000;stroke-width:0.264583"
       d="m 59.531247,55.562478 v -15.875 h 11.906249 v 3.96875 h -7.937499 v 2.645834 h 5.291666 v 2.645833 h -5.291666 v 6.614583 z"
       id="path1669" />
    <path
       style="fill:#000000;stroke-width:0.264583"
       d="m 72.760413,55.562478 v -15.875 h 3.96875 v 15.875 z"
       id="path1671" />
    <path
       style="fill:#000000;stroke-width:0.264583"
       d="m 78.05208,39.687478 v 7.9375 l 7.9375,7.9375 h 3.96875 v -15.875 h -3.96875 v 9.260417 l -3.96875,-3.96875 v -5.291667 z"
       id="path1673" />
    <path
       style="fill:#000000;stroke-width:0.264583"
       d="M 91.281246,39.687478 H 103.1875 v 3.96875 h -7.937504 v 2.645834 h 5.291664 v 2.645833 h -5.291664 v 2.645833 h 7.937504 v 3.96875 H 91.281246 v -15.875"
       id="path1677" />
    <path
       style="fill:#000000;stroke-width:0.264583"
       d="m 72.760413,76.729145 v -15.875 h 11.90625 v 3.96875 h -7.9375 v 11.90625 z"
       id="path1681" />
    <path
       style="fill:#000000;stroke-width:0.264583"
       d="m 99.218746,60.854145 v 3.96875 h 3.968754 v 11.90625 h 3.96875 v -11.90625 h 3.96875 v -3.96875 z"
       id="path1683" />
    <path
       style="fill:#000000;stroke-width:0.264583"
       d="m 72.760413,82.020811 v 15.875 h 11.90625 l -3.96875,-3.96875 h -3.96875 v -7.9375 z"
       id="path1691" />
    <path
       style="fill:#000000;stroke-width:0.264583"
       d="m 72.760413,82.020811 3.96875,3.96875 h 3.96875 v 7.9375 l 3.96875,3.96875 v -15.875 z"
       id="path1693" />
  </g>
  <g
     inkscape:label="Layer 1 copy"
     inkscape:groupmode="layer"
     id="g1949"
     transform="translate(-33.072898,-72.76044)"
     style="display:none">
    <rect
       style="fill:#000000;stroke-width:0.229135"
       id="rect1879"
       width="3.9687428"
       height="15.875"
       x="105.83331"
       y="112.44792" />
    <rect
       style="fill:#000000;stroke-width:0.264583"
       id="rect1887"
       width="3.96875"
       height="15.875"
       x="124.35415"
       y="112.44794" />
    <rect
       style="fill:#000000;stroke-width:0.264583"
       id="rect1889"
       width="9.9218674"
       height="3.9687495"
       x="126.33852"
       y="112.44794" />
    <rect
       style="fill:#000000;stroke-width:0.264583"
       id="rect1891"
       width="9.9218674"
       height="3.9687495"
       x="126.33852"
       y="124.35419" />
    <rect
       style="fill:#000000;stroke-width:0.264583"
       id="rect1907"
       width="6.6145754"
       height="2.6458304"
       x="126.33852"
       y="119.06249" />
    <rect
       style="fill:#ffffff;fill-opacity:1;stroke-width:0.264583"
       id="rect1909"
       width="3.96875"
       height="15.875"
       x="105.83331"
       y="133.61459" />
    <rect
       style="fill:#ffffff;fill-opacity:1;stroke-width:0.241528"
       id="rect1911"
       width="9.9218597"
       height="3.9687521"
       x="107.81769"
       y="133.61459" />
    <rect
       style="fill:#ffffff;fill-opacity:1;stroke-width:0.264583"
       id="rect1913"
       width="3.96875"
       height="15.875"
       x="119.06247"
       y="133.61459" />
    <rect
       style="fill:#ffffff;fill-opacity:1;stroke-width:0.264583"
       id="rect1915"
       width="9.9218693"
       height="3.96875"
       x="121.04684"
       y="133.61459" />
    <rect
       style="fill:#ffffff;fill-opacity:1;stroke-width:0.264583"
       id="rect1917"
       width="6.614584"
       height="2.6458333"
       x="121.04684"
       y="140.22917" />
    <rect
       style="fill:#ffffff;fill-opacity:1;stroke-width:0.264583"
       id="rect1919"
       width="9.9218693"
       height="3.96875"
       x="121.04684"
       y="145.52084" />
    <rect
       style="fill:#000000;fill-opacity:1;stroke-width:0.264583"
       id="rect1921"
       width="3.96875"
       height="15.875"
       x="119.06248"
       y="154.78125" />
    <rect
       style="fill:#000000;fill-opacity:1;stroke-width:0.24153"
       id="rect1923"
       width="8.5989618"
       height="3.9687521"
       x="121.04684"
       y="154.78125" />
    <rect
       style="fill:#000000;fill-opacity:1;stroke-width:0.264583"
       id="rect1925"
       width="3.9687476"
       height="15.875"
       x="170.65627"
       y="154.78123" />
    <rect
       style="fill:#000000;fill-opacity:1;stroke-width:0.24153"
       id="rect1927"
       width="9.9218483"
       height="3.9687521"
       x="172.64064"
       y="154.78123" />
    <rect
       style="fill:#000000;fill-opacity:1;stroke-width:0.264583"
       id="rect1929"
       width="3.96875"
       height="15.875"
       x="130.96873"
       y="154.78125" />
    <rect
       style="fill:#000000;fill-opacity:1;stroke-width:0.264583"
       id="rect1931"
       width="9.7205038"
       height="3.96875"
       x="133.15446"
       y="154.78125" />
    <rect
       style="fill:#000000;fill-opacity:1;stroke-width:0.264583"
       id="rect1933"
       width="6.4803405"
       height="2.6458333"
       x="133.15446"
       y="161.39583" />
    <rect
       style="fill:#000000;fill-opacity:1;stroke-width:0.264583"
       id="rect1935"
       width="9.7205038"
       height="3.96875"
       x="133.15446"
       y="166.6875" />
    <rect
       style="display:inline;fill:#000000;fill-opacity:1;stroke-width:0.264583"
       id="rect1929-7"
       width="3.96875"
       height="15.875"
       x="157.42709"
       y="154.78123" />
    <rect
       style="display:inline;fill:#000000;fill-opacity:1;stroke-width:0.264583"
       id="rect1931-5"
       width="9.9218693"
       height="3.96875"
       x="159.41147"
       y="154.78123" />
    <rect
       style="display:inline;fill:#000000;fill-opacity:1;stroke-width:0.264583"
       id="rect1933-6"
       width="6.614584"
       height="2.6458333"
       x="159.41147"
       y="161.39581" />
    <rect
       style="display:inline;fill:#000000;fill-opacity:1;stroke-width:0.264583"
       id="rect1935-2"
       width="9.9218693"
       height="3.96875"
       x="159.41147"
       y="166.68748" />
    <rect
       style="fill:#ffffff;fill-opacity:1;stroke-width:0.264583"
       id="rect1937"
       width="11.906253"
       height="3.9687521"
       x="132.29167"
       y="133.61459" />
    <rect
       style="fill:#ffffff;fill-opacity:1;stroke-width:0.264583"
       id="rect1939"
       width="3.96875"
       height="11.90625"
       x="136.26042"
       y="137.58334" />
    <rect
       style="fill:#000000;fill-opacity:1;stroke-width:0.264583"
       id="rect1941"
       width="3.96875"
       height="15.875"
       x="105.83331"
       y="154.78125" />
    <rect
       style="fill:#000000;fill-opacity:1;stroke-width:0.264583"
       id="rect1943"
       width="3.9687524"
       height="15.875003"
       x="113.77081"
       y="154.78125" />
    <rect
       style="fill:#000000;fill-opacity:1;stroke-width:0.229136"
       id="rect1945"
       width="5.9531274"
       height="3.9687476"
       x="109.1406"
       y="166.6875" />
    <rect
       style="fill:#000000;fill-opacity:1;stroke-width:0.264583"
       id="rect1947"
       width="5.9531274"
       height="3.96875"
       x="109.1406"
       y="154.78125" />
    <path
       style="fill:#000000;fill-opacity:1;stroke-width:0.264583"
       d="m 111.12499,112.44792 v 7.9375 l 7.9375,7.9375 h 3.96875 v -15.875 h -3.96875 v 3.96875 2.64583 2.64584 l -3.96875,-3.96875 v -5.29167 z"
       id="path3276"
       sodipodi:nodetypes="cccccccccccc" />
    <path
       style="display:inline;fill:#000000;fill-opacity:1;stroke-width:0.264583"
       d="m 144.19791,154.78128 v 7.9375 l 7.9375,7.9375 h 3.96875 v -15.875 h -3.96875 v 3.96875 2.64583 2.64584 l -3.96875,-3.96875 v -5.29167 z"
       id="path3276-1"
       sodipodi:nodetypes="cccccccccccc" />
    <path
       style="fill:#ffffff;fill-opacity:1;stroke-width:0.264583"
       d="m 92.604148,149.48958 -3e-6,-15.875 H 104.5104 v 3.96875 h -7.937507 v 2.64584 l 5.291677,-1e-5 v 2.64583 l -5.291677,1e-5 v 6.61458 z"
       id="path3508"
       sodipodi:nodetypes="ccccccccccc" />
    <path
       style="display:inline;fill:#000000;fill-opacity:1;stroke-width:0.264583"
       d="m 92.604149,128.32292 -3e-6,-15.875 H 104.5104 v 3.96875 h -7.937505 v 2.64584 h 5.291675 v 2.64583 h -5.291675 v 6.61458 z"
       id="path3508-9"
       sodipodi:nodetypes="ccccccccccc" />
    <path
       style="display:inline;fill:#000000;fill-opacity:1;stroke-width:0.264583"
       d="m 92.60415,170.65625 -3e-6,-15.875 H 104.5104 V 158.75 h -7.937504 v 2.64584 h 5.291674 v 2.64583 h -5.291674 v 6.61458 z"
       id="path3508-9-0"
       sodipodi:nodetypes="ccccccccccc" />
  </g>
</svg>
